<svg id="Calque_1" data-name="Calque 1" xmlns="http://www.w3.org/2000/svg" viewBox="0 0 72 72"><defs><style>.cls-1{fill:none;}.cls-2{isolation:isolate;}.cls-3{fill:#4d4d4d;}</style></defs><rect class="cls-1" width="72" height="72"/><g class="cls-2"><path class="cls-3" d="M58.54,78h-7l-7,0a12.84,12.84,0,0,1-3.45-.32A2.56,2.56,0,0,1,39.35,75q0-3.55,5.52-3.55l1.68,0,1.45.07c0-1.12-.1-2.78-.3-5s-.3-3.85-.3-5q0-4.45.81-13.57.76-9,.74-13.6c-3.15,2.44-5.15,3.66-6,3.66a3.59,3.59,0,0,1-3.48-3.49q0-1.65,3-4c1.26-.89,3.06-2.32,5.38-4.29Q51,23.2,53.76,23.2c1.57,0,2.36.9,2.36,2.71a20,20,0,0,1-.21,2.4,20.3,20.3,0,0,0-.21,2.41c0,.78,0,2,.12,3.52s.12,2.74.12,3.51q0,4-.84,12c-.56,5.29-.85,9.27-.85,11.91,0,1.36.1,3,.29,5s.29,3.54.31,4.78l3.69-.07a3.35,3.35,0,0,1,2.45,1,3.52,3.52,0,0,1,0,4.83A3.33,3.33,0,0,1,58.54,78Z" transform="translate(-14 -14)"/></g></svg>