<svg id="Calque_1" data-name="Calque 1" xmlns="http://www.w3.org/2000/svg" viewBox="0 0 72 72"><defs><style>.cls-1{fill:none;}.cls-2{isolation:isolate;}.cls-3{fill:#4d4d4d;}</style></defs><rect class="cls-1" width="72" height="72"/><g class="cls-2"><path class="cls-3" d="M63.46,78.08A8.14,8.14,0,0,1,61,77.53,8.4,8.4,0,0,0,58.54,77c-1.19,0-3,.07-5.38.21s-4.19.21-5.41.21a35.09,35.09,0,0,0-4.06.35,33,33,0,0,1-4.06.35A6,6,0,0,1,38.5,78a6.82,6.82,0,0,0-1.12-.14,3.05,3.05,0,0,1-3.17-2.35,14.66,14.66,0,0,1-.42-4.22q0-8.19,4.47-13.19,2-2.28,11-8.43A39.61,39.61,0,0,0,56,44.26a11.51,11.51,0,0,0,3-7.91q0-2.25-2.92-4a9.6,9.6,0,0,0-5-1.58,11.28,11.28,0,0,0-6.15,1.86l-5,3.94a4.43,4.43,0,0,1-2.43,1.19q-3.62,0-3.62-2.88A3.71,3.71,0,0,1,35.16,32a40.57,40.57,0,0,1,7.14-5.59,17.67,17.67,0,0,1,18.91.67q5,3.48,5,8.93a20.59,20.59,0,0,1-1,6.61,17,17,0,0,1-3.1,5.52q-2.62,3.17-8.93,7.07-6.6,4.14-8.68,6.29a13.33,13.33,0,0,0-3.83,9.81l7.24-.67q7.45-.42,10.65-.42a14.11,14.11,0,0,1,5.07.91c2.1.82,3.16,2,3.16,3.41a3.61,3.61,0,0,1-1,2.45A3,3,0,0,1,63.46,78.08Z" transform="translate(-14 -14)"/></g></svg>