<svg id="Calque_1" data-name="Calque 1" xmlns="http://www.w3.org/2000/svg" viewBox="0 0 72 72"><defs><style>.cls-1{fill:none;}.cls-2{isolation:isolate;}.cls-3{fill:#4d4d4d;}</style></defs><rect class="cls-1" width="72" height="72"/><g class="cls-2"><path class="cls-3" d="M49.3,79.62a20.14,20.14,0,0,1-9.53-2.21,13,13,0,0,1-6.4-7.21A3.88,3.88,0,0,1,33.16,69a3,3,0,0,1,1.07-2.34,3.68,3.68,0,0,1,2.48-.93A3,3,0,0,1,39.14,67l1.61,2.43A7.65,7.65,0,0,0,44.16,72a13.65,13.65,0,0,0,5.14.87A10.17,10.17,0,0,0,56,70.48a7.74,7.74,0,0,0,3.06-6.18,10.36,10.36,0,0,0-3.9-8.48A17.37,17.37,0,0,0,46,52.48c-2.6-.25-3.91-1.31-3.91-3.16,0-1.38,1-2.44,3.06-3.16l8.41-2.08a8.17,8.17,0,0,0,3.65-2.37,5.74,5.74,0,0,0,1.27-3.64,5.83,5.83,0,0,0-2.39-5c-1.71-1.31-4.12-2-7.21-2a10.06,10.06,0,0,0-4.64,1.16l-4,2.5a3.86,3.86,0,0,1-1.87.73A3.14,3.14,0,0,1,36,34.43,3.47,3.47,0,0,1,35,32c0-1.85,1.8-3.63,5.38-5.35a18.67,18.67,0,0,1,7.7-2.28q7.56,0,12,3.34,4.74,3.59,4.75,10.23,0,8.26-6.68,10.9c-.4.16-.86.33-1.37.49a14,14,0,0,1,7,5.15A14.92,14.92,0,0,1,66.1,63a15.91,15.91,0,0,1-4.89,11.76A16.3,16.3,0,0,1,49.3,79.62Z" transform="translate(-14 -14)"/></g></svg>